{
  "accessors": [
    {
      "bufferView": 2,
      "componentType": 5126,
      "count": 14239,
      "max": [
        0.04392800107598305,
        0.19354300200939178,
        0.6886150240898132
      ],
      "min": [
        -0.04392800107598305,
        -0.05507100000977516,
        -0.3013409972190857
      ],
      "type": "VEC3"
    },
    {
      "bufferView": 2,
      "byteOffset": 170868,
      "componentType": 5126,
      "count": 14239,
      "max": [
        1.0,
        1.0,
        1.0
      ],
      "min": [
        -1.0,
        -1.0,
        -1.0
      ],
      "type": "VEC3"
    },
    {
      "bufferView": 3,
      "componentType": 5126,
      "count": 14239,
      "max": [
        1.0,
        1.0,
        1.0,
        1.0
      ],
      "min": [
        -1.0,
        -1.0,
        -1.0,
        -1.0
      ],
      "type": "VEC4"
    },
    {
      "bufferView": 1,
      "componentType": 5126,
      "count": 14239,
      "max": [
        0.9969850182533264,
        0.996878981590271
      ],
      "min": [
        0.003014999907463789,
        0.0029849999118596315
      ],
      "type": "VEC2"
    },
    {
      "bufferView": 1,
      "byteOffset": 113912,
      "componentType": 5126,
      "count": 14239,
      "max": [
        4.984924793243408,
        0.9843950271606445
      ],
      "min": [
        0.015075000002980232,
        -3.9850759506225586
      ],
      "type": "VEC2"
    },
    {
      "bufferView": 0,
      "componentType": 5125,
      "count": 44598,
      "type": "SCALAR"
    },
    {
      "bufferView": 2,
      "byteOffset": 341736,
      "componentType": 5126,
      "count": 359,
      "max": [
        0.009100000374019146,
        0.09902200102806091,
        0.17955400049686432
      ],
      "min": [
        -0.009123999625444412,
        0.08079800009727478,
        0.12772800028324127
      ],
      "type": "VEC3"
    },
    {
      "bufferView": 2,
      "byteOffset": 346044,
      "componentType": 5126,
      "count": 359,
      "max": [
        1.0,
        1.0,
        1.0
      ],
      "min": [
        -1.0,
        -1.0,
        -1.0
      ],
      "type": "VEC3"
    },
    {
      "bufferView": 3,
      "byteOffset": 227824,
      "componentType": 5126,
      "count": 359,
      "max": [
        0.3619820773601532,
        1.0,
        0.9999998807907104,
        1.0
      ],
      "min": [
        -0.36183828115463257,
        -1.0,
        -1.6842843251652084e-05,
        -1.0
      ],
      "type": "VEC4"
    },
    {
      "bufferView": 1,
      "byteOffset": 227824,
      "componentType": 5126,
      "count": 359,
      "max": [
        0.9888820052146912,
        0.9928749799728394
      ],
      "min": [
        0.5577380061149597,
        0.6825799942016602
      ],
      "type": "VEC2"
    },
    {
      "bufferView": 1,
      "byteOffset": 230696,
      "componentType": 5126,
      "count": 359,
      "max": [
        4.9444098472595215,
        0.9643750190734863
      ],
      "min": [
        2.7886900901794434,
        -0.587103009223938
      ],
      "type": "VEC2"
    },
    {
      "bufferView": 0,
      "byteOffset": 178392,
      "componentType": 5125,
      "count": 1152,
      "type": "SCALAR"
    },
    {
      "bufferView": 2,
      "byteOffset": 350352,
      "componentType": 5126,
      "count": 1259,
      "max": [
        0.02703999914228916,
        0.19312900304794312,
        0.08195199817419052
      ],
      "min": [
        -0.02703999914228916,
        0.1607149988412857,
        0.010375999845564365
      ],
      "type": "VEC3"
    },
    {
      "bufferView": 2,
      "byteOffset": 365460,
      "componentType": 5126,
      "count": 1259,
      "max": [
        1.0,
        1.0,
        1.0
      ],
      "min": [
        -1.0,
        -1.0,
        -1.0
      ],
      "type": "VEC3"
    },
    {
      "bufferView": 3,
      "byteOffset": 233568,
      "componentType": 5126,
      "count": 1259,
      "max": [
        1.0,
        0.9998930096626282,
        1.0,
        1.0
      ],
      "min": [
        -1.0,
        -1.0,
        -1.0,
        -1.0
      ],
      "type": "VEC4"
    },
    {
      "bufferView": 1,
      "byteOffset": 233568,
      "componentType": 5126,
      "count": 1259,
      "max": [
        0.9951239824295044,
        0.4928489923477173
      ],
      "min": [
        0.004871999844908714,
        0.0048699998296797276
      ],
      "type": "VEC2"
    },
    {
      "bufferView": 1,
      "byteOffset": 243640,
      "componentType": 5126,
      "count": 1259,
      "max": [
        4.975619792938232,
        -1.5357550382614136
      ],
      "min": [
        0.02435999922454357,
        -3.9756479263305664
      ],
      "type": "VEC2"
    },
    {
      "bufferView": 0,
      "byteOffset": 183000,
      "componentType": 5125,
      "count": 3384,
      "type": "SCALAR"
    },
    {
      "bufferView": 2,
      "byteOffset": 380568,
      "componentType": 5126,
      "count": 4,
      "max": [
        1.0,
        0.0,
        1.0
      ],
      "min": [
        -1.0,
        0.0,
        -1.0
      ],
      "type": "VEC3"
    },
    {
      "bufferView": 2,
      "byteOffset": 380616,
      "componentType": 5126,
      "count": 4,
      "max": [
        0.0,
        1.0,
        -0.0
      ],
      "min": [
        0.0,
        1.0,
        -0.0
      ],
      "type": "VEC3"
    },
    {
      "bufferView": 1,
      "byteOffset": 253712,
      "componentType": 5126,
      "count": 4,
      "max": [
        1.0,
        1.0
      ],
      "min": [
        0.0,
        0.0
      ],
      "type": "VEC2"
    },
    {
      "bufferView": 0,
      "byteOffset": 196536,
      "componentType": 5125,
      "count": 6,
      "type": "SCALAR"
    },
    {
      "bufferView": 2,
      "byteOffset": 380664,
      "componentType": 5126,
      "count": 24,
      "max": [
        1.0,
        1.0,
        1.0
      ],
      "min": [
        -1.0,
        -1.0,
        -1.0
      ],
      "type": "VEC3"
    },
    {
      "bufferView": 2,
      "byteOffset": 380952,
      "componentType": 5126,
      "count": 24,
      "max": [
        1.0,
        1.0,
        1.0
      ],
      "min": [
        -1.0,
        -1.0,
        -1.0
      ],
      "type": "VEC3"
    },
    {
      "bufferView": 1,
      "byteOffset": 253744,
      "componentType": 5126,
      "count": 24,
      "max": [
        0.875,
        1.0
      ],
      "min": [
        0.125,
        0.0
      ],
      "type": "VEC2"
    },
    {
      "bufferView": 0,
      "byteOffset": 196560,
      "componentType": 5125,
      "count": 36,
      "type": "SCALAR"
    }
  ],
  "asset": {
    "extras": {
      "author": "MValdés (https://sketchfab.com/mariavaldes)",
      "license": "CC-BY-4.0 (http://creativecommons.org/licenses/by/4.0/)",
      "source": "https://sketchfab.com/3d-models/the-comedian-normaladept-0e7263bbedd4435d9b23c221c3389e20",
      "title": "The Comedian (Normal+Adept)"
    },
    "generator": "Sketchfab-12.0.1",
    "version": "2.0"
  },
  "bufferViews": [
    {
      "buffer": 0,
      "byteLength": 196704,
      "name": "floatBufferViews",
      "target": 34963
    },
    {
      "buffer": 0,
      "byteLength": 253936,
      "byteOffset": 196704,
      "byteStride": 8,
      "name": "floatBufferViews",
      "target": 34962
    },
    {
      "buffer": 0,
      "byteLength": 381240,
      "byteOffset": 450640,
      "byteStride": 12,
      "name": "floatBufferViews",
      "target": 34962
    },
    {
      "buffer": 0,
      "byteLength": 253712,
      "byteOffset": 831880,
      "byteStride": 16,
      "name": "floatBufferViews",
      "target": 34962
    }
  ],
  "buffers": [
    {
      "byteLength": 1085592,
      "uri": "scene.bin"
    }
  ],
  "images": [
    {
      "uri": "textures/TheComedianBody_baseColor.png"
    },
    {
      "uri": "textures/TheComedianBody_normal.png"
    },
    {
      "uri": "textures/TheComedianSight_baseColor.png"
    },
    {
      "uri": "textures/TheComedianSight_normal.png"
    }
  ],
  "materials": [
    {
      "doubleSided": true,
      "name": "TheComedianBody",
      "normalTexture": {
        "index": 1
      },
      "pbrMetallicRoughness": {
        "baseColorTexture": {
          "index": 0
        }
      }
    },
    {
      "doubleSided": true,
      "name": "TheComedianSight",
      "normalTexture": {
        "index": 3
      },
      "pbrMetallicRoughness": {
        "baseColorTexture": {
          "index": 2
        }
      }
    },
    {
      "doubleSided": true,
      "name": "Material",
      "pbrMetallicRoughness": {
        "baseColorFactor": [
          0.157574,
          0.157574,
          0.157574,
          1.0
        ],
        "metallicFactor": 0.0,
        "roughnessFactor": 0.0
      }
    },
    {
      "doubleSided": true,
      "name": "Destiny1_Weapons_Preset"
    }
  ],
  "meshes": [
    {
      "name": "Object_0",
      "primitives": [
        {
          "attributes": {
            "NORMAL": 1,
            "POSITION": 0,
            "TANGENT": 2,
            "TEXCOORD_0": 3,
            "TEXCOORD_1": 4
          },
          "indices": 5,
          "material": 0,
          "mode": 4
        }
      ]
    },
    {
      "name": "Object_1",
      "primitives": [
        {
          "attributes": {
            "NORMAL": 7,
            "POSITION": 6,
            "TANGENT": 8,
            "TEXCOORD_0": 9,
            "TEXCOORD_1": 10
          },
          "indices": 11,
          "material": 1,
          "mode": 4
        }
      ]
    },
    {
      "name": "Object_2",
      "primitives": [
        {
          "attributes": {
            "NORMAL": 13,
            "POSITION": 12,
            "TANGENT": 14,
            "TEXCOORD_0": 15,
            "TEXCOORD_1": 16
          },
          "indices": 17,
          "material": 1,
          "mode": 4
        }
      ]
    },
    {
      "name": "Object_3",
      "primitives": [
        {
          "attributes": {
            "NORMAL": 19,
            "POSITION": 18,
            "TEXCOORD_0": 20
          },
          "indices": 21,
          "material": 2,
          "mode": 4
        }
      ]
    },
    {
      "name": "Object_4",
      "primitives": [
        {
          "attributes": {
            "NORMAL": 23,
            "POSITION": 22,
            "TEXCOORD_0": 24
          },
          "indices": 25,
          "material": 3,
          "mode": 4
        }
      ]
    }
  ],
  "nodes": [
    {
      "children": [
        1
      ],
      "matrix": [
        1.0,
        0.0,
        0.0,
        0.0,
        0.0,
        2.220446049250313e-16,
        -1.0,
        0.0,
        0.0,
        1.0,
        2.220446049250313e-16,
        0.0,
        0.0,
        0.0,
        0.0,
        1.0
      ],
      "name": "Sketchfab_model"
    },
    {
      "children": [
        2
      ],
      "name": "root"
    },
    {
      "children": [
        3,
        5,
        7,
        9,
        11
      ],
      "matrix": [
        1.0,
        0.0,
        0.0,
        0.0,
        0.0,
        2.220446049250313e-16,
        1.0,
        0.0,
        0.0,
        -1.0,
        2.220446049250313e-16,
        0.0,
        0.0,
        0.0,
        0.0,
        1.0
      ],
      "name": "GLTF_SceneRootNode"
    },
    {
      "children": [
        4
      ],
      "matrix": [
        8.429369480200677e-08,
        0.0,
        -0.9999999999999966,
        0.0,
        0.0,
        1.0,
        0.0,
        0.0,
        0.9999999999999966,
        0.0,
        8.429369480200677e-08,
        0.0,
        0.0,
        0.0,
        0.0,
        1.0
      ],
      "name": "The-Comedian.00.000_1"
    },
    {
      "mesh": 0,
      "name": "Object_4"
    },
    {
      "children": [
        6
      ],
      "matrix": [
        8.429369480200677e-08,
        0.0,
        -0.9999999999999966,
        0.0,
        0.0,
        1.0,
        0.0,
        0.0,
        0.9999999999999966,
        0.0,
        8.429369480200677e-08,
        0.0,
        0.0,
        0.0,
        0.0,
        1.0
      ],
      "name": "The-Comedian.01.000_2"
    },
    {
      "mesh": 1,
      "name": "Object_6"
    },
    {
      "children": [
        8
      ],
      "matrix": [
        8.429369480200677e-08,
        0.0,
        -0.9999999999999966,
        0.0,
        0.0,
        1.0,
        0.0,
        0.0,
        0.9999999999999966,
        0.0,
        8.429369480200677e-08,
        0.0,
        0.0,
        0.0,
        0.0,
        1.0
      ],
      "name": "The-Comedian.03.000_3"
    },
    {
      "mesh": 2,
      "name": "Object_8"
    },
    {
      "children": [
        10
      ],
      "matrix": [
        1.7178751230239868,
        0.0,
        0.0,
        0.0,
        0.0,
        0.9157038331031799,
        0.0,
        0.0,
        0.0,
        0.0,
        0.9157038331031799,
        0.0,
        0.2011295109987259,
        -0.1753527969121933,
        0.0,
        1.0
      ],
      "name": "Plane.001_4"
    },
    {
      "mesh": 3,
      "name": "Object_10"
    },
    {
      "children": [
        12
      ],
      "matrix": [
        0.0800316333770752,
        0.0,
        0.0,
        0.0,
        0.0,
        0.0800316333770752,
        0.0,
        0.0,
        0.0,
        0.0,
        0.0800316333770752,
        0.0,
        0.0,
        0.0,
        -1.4563496112823486,
        1.0
      ],
      "name": "Cube_9"
    },
    {
      "mesh": 4,
      "name": "Object_12"
    }
  ],
  "samplers": [
    {
      "magFilter": 9729,
      "minFilter": 9987,
      "wrapS": 10497,
      "wrapT": 10497
    }
  ],
  "scene": 0,
  "scenes": [
    {
      "name": "Sketchfab_Scene",
      "nodes": [
        0
      ]
    }
  ],
  "textures": [
    {
      "sampler": 0,
      "source": 0
    },
    {
      "sampler": 0,
      "source": 1
    },
    {
      "sampler": 0,
      "source": 2
    },
    {
      "sampler": 0,
      "source": 3
    }
  ]
}
